<?xml version="1.0" standalone="no"?>
<!DOCTYPE svg PUBLIC "-//W3C//DTD SVG 20010904//EN"
 "http://www.w3.org/TR/2001/REC-SVG-20010904/DTD/svg10.dtd">
<svg version="1.0" xmlns="http://www.w3.org/2000/svg"
 width="512.000000pt" height="512.000000pt" viewBox="0 0 512.000000 512.000000"
 preserveAspectRatio="xMidYMid meet">
<metadata>
Created by potrace 1.14, written by Peter Selinger 2001-2017
</metadata>
<g transform="translate(0.000000,512.000000) scale(0.100000,-0.100000)"
fill="#000000" stroke="none">
<path d="M1617 5109 c-672 -27 -1005 -127 -1245 -371 -195 -199 -293 -454
-337 -885 -25 -250 -35 -599 -35 -1293 0 -901 17 -1268 71 -1548 78 -406 255
-663 559 -817 315 -159 673 -195 1930 -195 1088 0 1446 25 1750 122 413 131
647 414 739 890 54 280 71 648 71 1548 0 688 -10 1047 -35 1293 -45 437 -146
698 -347 895 -247 243 -566 334 -1273 362 -290 11 -1557 11 -1848 -1z m151
-775 c322 -66 580 -324 646 -646 12 -60 16 -141 16 -362 0 -255 -2 -290 -20
-348 -39 -128 -140 -228 -269 -269 -56 -17 -94 -19 -347 -19 -315 0 -382 8
-511 62 -367 152 -577 547 -497 936 65 319 322 578 639 645 93 20 248 21 343
1z m2007 -264 c259 -66 463 -262 545 -525 31 -100 38 -256 16 -365 -65 -319
-315 -558 -636 -610 -49 -8 -165 -11 -335 -8 l-260 3 -67 32 c-81 38 -146 102
-185 181 l-28 57 0 320 0 320 29 88 c109 332 429 553 771 530 44 -3 112 -13
150 -23z m-1830 -1791 c114 -43 201 -139 231 -259 22 -89 15 -447 -11 -530
-54 -171 -184 -326 -335 -398 -108 -51 -172 -66 -285 -65 -301 1 -559 211
-622 507 -20 94 -13 239 17 326 55 167 186 314 343 386 102 46 148 53 384 53
202 1 227 -1 278 -20z m1421 -110 c159 -22 297 -91 409 -203 83 -84 136 -171
171 -281 145 -453 -194 -915 -671 -915 -114 0 -206 23 -315 76 -78 39 -109 62
-175 128 -120 122 -182 243 -205 402 -13 94 -13 431 1 496 33 154 154 272 307
298 71 12 390 11 478 -1z"/>
</g>
</svg>
